<svg width="122" height="32" viewBox="0 0 122 32" fill="none" xmlns="http://www.w3.org/2000/svg">
<path d="M32.0045 4.97046V9.95403C32.0045 9.04912 31.7553 8.19667 31.3356 7.46225C30.4701 5.98029 28.8701 4.98357 27.034 4.98357H4.98828V4.97046C4.98828 3.13441 5.985 1.53442 7.46695 0.668848C8.20137 0.249179 9.05383 0 9.95874 0H27.034C29.775 0 32.0045 2.22949 32.0045 4.97046Z" fill="url(#paint0_linear)"/>
<path d="M32.0048 9.95429V27.0296C32.0048 29.7706 29.7753 32 27.0344 32H22.0508C22.9557 32 23.8081 31.7509 24.5426 31.3312C26.0245 30.4656 27.0212 28.8656 27.0212 27.0296V4.98383H27.0344C28.8704 4.98383 30.4704 5.98054 31.336 7.4625C31.7556 8.19692 32.0048 9.04937 32.0048 9.95429Z" fill="url(#paint1_linear)"/>
<path d="M27.0162 27.0162V27.0293C27.0162 28.8654 26.0195 30.4654 24.5375 31.3309C23.8031 31.7506 22.9507 31.9998 22.0458 31.9998H4.97046C2.22949 31.9998 0 29.7834 0 27.0293V21.9933C0 22.9113 0.249179 23.7769 0.681963 24.5113C1.54753 25.9801 3.14752 26.9637 4.97046 26.9637H4.98357V27.0162H27.0162Z" fill="url(#paint2_linear)"/>
<path d="M9.95403 0C9.04912 0 8.19667 0.249179 7.46225 0.668848C5.98029 1.53442 4.98357 3.13441 4.98357 4.97046V26.9769H4.97046C3.14752 26.9769 1.54753 25.9933 0.681963 24.5244C0.249179 23.7769 0 22.9244 0 22.0064V4.97046C0 2.22949 2.22949 0 4.97046 0H9.95403Z" fill="url(#paint3_linear)"/>
<path d="M19.2433 20.0261C19.0203 20.2228 18.7842 20.4195 18.5351 20.59C18.2859 20.7736 18.0236 20.9179 17.7482 21.049C17.4728 21.1802 17.1843 21.2851 16.8957 21.3638C16.6072 21.4425 16.3056 21.4818 16.0039 21.4818C15.3351 21.4818 14.7187 21.3638 14.1285 21.1277C13.5515 20.8916 13.04 20.5638 12.5941 20.131C12.1613 19.6982 11.8072 19.1736 11.5581 18.5572C11.3089 17.9408 11.1777 17.2458 11.1777 16.472V10.5179H13.9187V16.472C13.9187 16.8392 13.9712 17.154 14.0892 17.4425C14.1941 17.731 14.3515 17.9671 14.5351 18.1638C14.7187 18.3605 14.9416 18.5048 15.1908 18.6097C15.44 18.7146 15.7154 18.7671 16.0039 18.7671C16.2793 18.7671 16.5547 18.7015 16.8039 18.5704C17.0531 18.4392 17.2761 18.2687 17.4597 18.0589C17.6433 17.849 17.8006 17.5999 17.9056 17.3245C18.0105 17.0491 18.0629 16.7736 18.0629 16.4851V10.5179H20.8039V21.2851H20.1351L19.2433 20.0261Z" fill="white"/>
<path d="M50.8338 15.4622C50.8338 16.013 50.7682 16.5507 50.6239 17.0622C50.4797 17.5737 50.2829 18.0458 50.0206 18.4917C49.7583 18.9376 49.4436 19.3441 49.0895 19.7113C48.7223 20.0786 48.3289 20.3933 47.8698 20.6556C47.4239 20.9179 46.9387 21.1146 46.4403 21.2589C45.942 21.4031 45.4043 21.4687 44.8404 21.4687H41.2207V9.45569H44.8404C45.3912 9.45569 45.9289 9.52126 46.4403 9.66552C46.9518 9.80978 47.4239 10.0065 47.8698 10.2688C48.3157 10.5311 48.7223 10.8458 49.0895 11.2131C49.4567 11.5803 49.7583 11.9868 50.0206 12.4327C50.2829 12.8786 50.4797 13.3507 50.6239 13.8622C50.7682 14.3737 50.8338 14.8983 50.8338 15.4622ZM48.4338 15.4622C48.4338 14.9638 48.342 14.5048 48.1584 14.0589C47.9748 13.6261 47.7125 13.2458 47.3846 12.918C47.0567 12.5901 46.6764 12.3278 46.2436 12.1442C45.8108 11.9606 45.3387 11.8557 44.8404 11.8557H43.6469V19.0556H44.8404C45.3387 19.0556 45.7977 18.9638 46.2436 18.7802C46.6764 18.5966 47.0698 18.3343 47.3846 18.0064C47.7125 17.6786 47.9616 17.2983 48.1584 16.8655C48.342 16.4196 48.4338 15.9474 48.4338 15.4622Z" fill="white"/>
<path d="M55.7565 19.2654C55.8483 19.2916 55.9401 19.3178 56.0188 19.3178C56.1106 19.331 56.2024 19.3309 56.2811 19.3309C56.5041 19.3309 56.7139 19.3047 56.9237 19.2391C57.1336 19.1736 57.3303 19.0949 57.5008 18.9769C57.6844 18.8588 57.8418 18.7277 57.986 18.5572C58.1303 18.3867 58.2483 18.2162 58.327 18.0064L60.0057 19.685C59.7959 19.9867 59.5467 20.2621 59.2713 20.4982C58.9959 20.7342 58.6942 20.9441 58.3795 21.1145C58.0647 21.285 57.7237 21.4031 57.3696 21.4949C57.0155 21.5867 56.6483 21.626 56.2811 21.626C55.6516 21.626 55.0615 21.508 54.4975 21.2719C53.9467 21.0359 53.4615 20.708 53.0418 20.2883C52.6221 19.8687 52.2943 19.3703 52.0582 18.7932C51.8221 18.2162 51.7041 17.5867 51.7041 16.8916C51.7041 16.1834 51.8221 15.5408 52.0582 14.9507C52.2943 14.3605 52.6221 13.8621 53.0418 13.4556C53.4615 13.049 53.9467 12.7212 54.4975 12.4982C55.0483 12.2753 55.6516 12.1572 56.2811 12.1572C56.6483 12.1572 57.0155 12.1966 57.3828 12.2884C57.7368 12.3802 58.0778 12.5113 58.4057 12.6687C58.7204 12.8392 59.0221 13.0359 59.3106 13.2851C59.586 13.5343 59.8352 13.7966 60.045 14.0982L55.7565 19.2654ZM56.9237 14.5572C56.8188 14.5179 56.7139 14.4916 56.609 14.4785C56.5041 14.4654 56.3992 14.4654 56.2811 14.4654C55.9664 14.4654 55.6778 14.5179 55.4024 14.6359C55.127 14.7539 54.891 14.9113 54.6811 15.1211C54.4713 15.331 54.3139 15.5933 54.1959 15.8818C54.0779 16.1834 54.0254 16.5113 54.0254 16.8916C54.0254 16.9703 54.0254 17.0752 54.0385 17.1801C54.0516 17.2851 54.0647 17.39 54.0779 17.508C54.091 17.6129 54.1172 17.7178 54.1434 17.8228C54.1697 17.9277 54.209 18.0064 54.2483 18.0851L56.9237 14.5572Z" fill="white"/>
<path d="M63.4587 21.4557H61.1768V12.4984H61.7276L62.4751 13.364C62.8423 13.023 63.262 12.7738 63.721 12.5902C64.1931 12.4066 64.6784 12.3148 65.1767 12.3148C65.7276 12.3148 66.239 12.4197 66.7243 12.6296C67.2095 12.8394 67.6292 13.1279 67.9964 13.4951C68.3636 13.8623 68.639 14.282 68.8489 14.7804C69.0587 15.2787 69.1636 15.7902 69.1636 16.341V21.4688H66.8817V16.341C66.8817 16.105 66.8423 15.882 66.7505 15.6722C66.6587 15.4623 66.5407 15.2787 66.3833 15.1214C66.2259 14.964 66.0423 14.8459 65.8456 14.7541C65.6358 14.6623 65.4128 14.623 65.1899 14.623C64.9538 14.623 64.7177 14.6623 64.5079 14.7541C64.2981 14.8459 64.1144 14.964 63.9571 15.1214C63.7997 15.2787 63.6817 15.4623 63.5899 15.6722C63.4981 15.882 63.4587 16.105 63.4587 16.341V21.4557Z" fill="white"/>
<path d="M77.3432 20.4066C77.1596 20.577 76.9629 20.7344 76.753 20.8787C76.5432 21.0229 76.3203 21.1541 76.0973 21.259C75.8744 21.3639 75.6383 21.4557 75.3891 21.5213C75.1399 21.5869 74.9039 21.6131 74.6547 21.6131C74.1039 21.6131 73.5793 21.5213 73.094 21.3246C72.6088 21.1279 72.1891 20.8525 71.8219 20.4984C71.4547 20.1443 71.1662 19.6984 70.9563 19.1869C70.7465 18.6754 70.6416 18.0984 70.6416 17.4558V12.4984H72.9104V17.4426C72.9104 17.7443 72.9629 18.0197 73.0547 18.2557C73.1465 18.4918 73.2645 18.6885 73.4219 18.859C73.5793 19.0164 73.7629 19.1475 73.9727 19.2262C74.1826 19.3049 74.4055 19.3574 74.6416 19.3574C74.8776 19.3574 75.1006 19.3049 75.3104 19.2C75.5203 19.0951 75.7039 18.9508 75.8612 18.7672C76.0186 18.5836 76.1367 18.3869 76.2285 18.1639C76.3203 17.941 76.3596 17.7049 76.3596 17.4689V12.4984H78.6416V21.4557H78.0907L77.3432 20.4066Z" fill="white"/>
<path d="M82.6697 21.4557H80.3877V12.4984H80.9385L81.6861 13.364C82.0533 13.023 82.4729 12.7738 82.9319 12.5902C83.4041 12.4066 83.8893 12.3148 84.3877 12.3148C84.9385 12.3148 85.45 12.4197 85.9352 12.6296C86.4204 12.8394 86.8401 13.1279 87.2073 13.4951C87.5745 13.8623 87.8499 14.282 88.0598 14.7804C88.2696 15.2656 88.3745 15.7902 88.3745 16.341V21.4688H86.0926V16.341C86.0926 16.105 86.0532 15.882 85.9614 15.6722C85.8696 15.4623 85.7516 15.2787 85.5942 15.1214C85.4368 14.964 85.2532 14.8459 85.0565 14.7541C84.8467 14.6623 84.6237 14.623 84.4008 14.623C84.1647 14.623 83.9287 14.6623 83.7188 14.7541C83.509 14.8459 83.3254 14.964 83.168 15.1214C83.0106 15.2787 82.8926 15.4623 82.8008 15.6722C82.709 15.882 82.6697 16.105 82.6697 16.341V21.4557Z" fill="white"/>
<path d="M97.8532 14.2819L96.1745 15.9605C96.0958 15.7245 95.9778 15.5146 95.8335 15.331C95.6893 15.1474 95.5188 14.9901 95.3483 14.8589C95.1647 14.7278 94.968 14.636 94.7581 14.5704C94.5483 14.5048 94.3253 14.4655 94.1024 14.4655C93.7876 14.4655 93.4991 14.531 93.2237 14.6622C92.9483 14.7933 92.7123 14.9769 92.5024 15.1999C92.2926 15.436 92.1352 15.7114 92.0172 16.0261C91.8991 16.3409 91.8467 16.695 91.8467 17.0753C91.8467 17.39 91.8991 17.6786 92.0172 17.954C92.1352 18.2294 92.2926 18.4654 92.5024 18.6753C92.7123 18.8851 92.9483 19.0425 93.2237 19.1605C93.4991 19.2786 93.7876 19.331 94.1024 19.331C94.3253 19.331 94.5352 19.3048 94.745 19.2392C94.9549 19.1736 95.1516 19.095 95.3221 18.9769C95.5057 18.8589 95.663 18.7277 95.8073 18.5573C95.9516 18.3868 96.0696 18.2163 96.1483 18.0064L97.827 19.6851C97.6171 19.9868 97.368 20.2622 97.0925 20.4982C96.8171 20.7343 96.5155 20.9441 96.2007 21.1146C95.886 21.2851 95.545 21.4031 95.1909 21.4949C94.8368 21.5867 94.4696 21.6261 94.1024 21.6261C93.4729 21.6261 92.8827 21.5081 92.3188 21.272C91.768 21.0359 91.2828 20.7081 90.8631 20.3015C90.4434 19.8949 90.1156 19.4097 89.8795 18.8589C89.6434 18.3081 89.5254 17.7179 89.5254 17.0884C89.5254 16.4064 89.6434 15.7638 89.8795 15.1606C90.1156 14.5573 90.4434 14.0458 90.8631 13.5999C91.2828 13.154 91.768 12.7999 92.3188 12.5507C92.8696 12.2884 93.4729 12.1704 94.1024 12.1704C94.4696 12.1704 94.8368 12.2229 95.204 12.3147C95.5581 12.4065 95.9122 12.5507 96.227 12.7343C96.5548 12.9179 96.8565 13.1409 97.1319 13.4032C97.4073 13.6393 97.6434 13.9409 97.8532 14.2819Z" fill="white"/>
<path d="M101.657 10.059C101.657 10.2688 101.617 10.4655 101.539 10.6491C101.46 10.8327 101.342 10.9901 101.211 11.1344C101.067 11.2655 100.909 11.3835 100.726 11.4622C100.542 11.5409 100.345 11.5803 100.122 11.5803C99.9125 11.5803 99.7158 11.5409 99.519 11.4622C99.3354 11.3835 99.1649 11.2786 99.0338 11.1344C98.9026 11.0032 98.7846 10.8327 98.7059 10.6491C98.6272 10.4655 98.5879 10.2688 98.5879 10.059C98.5879 9.84913 98.6272 9.65241 98.7059 9.4688C98.7846 9.28519 98.8895 9.1147 99.0338 8.98356C99.1649 8.85241 99.3354 8.73438 99.519 8.65569C99.7026 8.577 99.8994 8.53766 100.122 8.53766C100.332 8.53766 100.529 8.577 100.726 8.65569C100.909 8.73438 101.08 8.8393 101.211 8.98356C101.355 9.1147 101.46 9.28519 101.539 9.4688C101.617 9.65241 101.657 9.84913 101.657 10.059ZM101.263 21.4556H98.9682V12.4983H101.263V21.4556Z" fill="white"/>
<path d="M111.677 21.4555H111.127L110.235 20.2227C110.012 20.4195 109.789 20.6031 109.54 20.7736C109.291 20.9441 109.041 21.0883 108.779 21.2195C108.517 21.3506 108.241 21.4424 107.953 21.5211C107.678 21.5998 107.389 21.626 107.1 21.626C106.471 21.626 105.881 21.5211 105.317 21.3113C104.766 21.1014 104.281 20.7867 103.861 20.3801C103.441 19.9736 103.114 19.4752 102.878 18.8982C102.641 18.308 102.523 17.6523 102.523 16.8916C102.523 16.1965 102.641 15.5539 102.878 14.9769C103.114 14.3998 103.441 13.8884 103.861 13.4687C104.281 13.049 104.766 12.7212 105.317 12.4982C105.868 12.2621 106.471 12.1572 107.1 12.1572C107.389 12.1572 107.677 12.1966 107.966 12.2621C108.255 12.3408 108.53 12.4326 108.792 12.5638C109.055 12.6949 109.317 12.8392 109.553 13.0097C109.789 13.1802 110.025 13.3638 110.235 13.5736L111.127 12.5113H111.677V21.4555ZM109.382 16.8916C109.382 16.5769 109.317 16.2752 109.199 15.9867C109.081 15.6982 108.91 15.4359 108.714 15.2129C108.504 14.99 108.268 14.8064 107.992 14.6752C107.717 14.5441 107.415 14.4654 107.114 14.4654C106.799 14.4654 106.51 14.5179 106.235 14.6228C105.959 14.7277 105.723 14.8851 105.514 15.0949C105.304 15.3047 105.146 15.5539 105.028 15.8556C104.91 16.1572 104.858 16.5113 104.858 16.8916C104.858 17.2851 104.91 17.626 105.028 17.9277C105.146 18.2293 105.304 18.4916 105.514 18.6883C105.723 18.8982 105.959 19.0555 106.235 19.1605C106.51 19.2654 106.799 19.3178 107.114 19.3178C107.428 19.3178 107.717 19.2523 107.992 19.108C108.268 18.9769 108.504 18.7932 108.714 18.5703C108.923 18.3474 109.081 18.0851 109.199 17.7965C109.317 17.508 109.382 17.2064 109.382 16.8916Z" fill="white"/>
<path d="M118.331 21.4557H113.111V19.1738H118.331C118.488 19.1738 118.619 19.1213 118.738 19.0033C118.856 18.8984 118.908 18.7541 118.908 18.5967C118.908 18.4394 118.856 18.3344 118.738 18.282C118.619 18.2295 118.488 18.2033 118.331 18.2033H115.957C115.564 18.2033 115.197 18.1246 114.842 17.9803C114.501 17.8361 114.2 17.6262 113.938 17.364C113.675 17.1017 113.479 16.8 113.334 16.459C113.19 16.1181 113.111 15.7377 113.111 15.3443C113.111 14.9509 113.19 14.5836 113.334 14.2295C113.479 13.8886 113.688 13.5869 113.938 13.3246C114.2 13.0623 114.501 12.8656 114.842 12.7214C115.183 12.5771 115.564 12.4984 115.957 12.4984H120.587V14.7804H115.957C115.8 14.7804 115.669 14.8328 115.551 14.9509C115.433 15.0689 115.38 15.2 115.38 15.3574C115.38 15.5148 115.433 15.659 115.551 15.7771C115.669 15.8951 115.8 15.9476 115.957 15.9476H118.331C118.724 15.9476 119.092 16.0131 119.433 16.1443C119.774 16.2754 120.075 16.459 120.338 16.6951C120.6 16.9312 120.797 17.2066 120.954 17.5344C121.098 17.8623 121.177 18.2295 121.177 18.6098C121.177 19.0033 121.098 19.3705 120.954 19.7246C120.81 20.0656 120.6 20.3672 120.338 20.6295C120.075 20.8918 119.774 21.0885 119.433 21.2459C119.092 21.377 118.724 21.4557 118.331 21.4557Z" fill="white"/>
<path d="M86.6074 23.6458H89.0861V24.1966H87.2369V25.3113H88.732V25.8621H87.2369V27.0162H89.0861V27.5801H86.6074V23.6458Z" fill="white"/>
<path d="M89.7207 27.5934V24.7213H90.3371V24.9049C90.3371 24.9049 90.7436 24.6688 91.0846 24.6688C91.4387 24.6688 91.6486 24.7606 91.819 24.9442C91.819 24.9442 92.3436 24.6688 92.8026 24.6688C93.5895 24.6688 93.7994 25.0885 93.7994 26.059V27.5934H93.183V26.0721C93.183 25.495 93.1174 25.2196 92.6977 25.2196C92.383 25.2196 92.042 25.377 92.042 25.377C92.0682 25.4295 92.0813 25.836 92.0813 26.1114V27.5934H91.4649V26.1114C91.4649 25.4688 91.3994 25.2065 90.9666 25.2065C90.6387 25.2065 90.3502 25.3508 90.3502 25.3508V27.5803H89.7207V27.5934Z" fill="white"/>
<path d="M94.5332 24.7081H95.1496V24.8917C95.1496 24.8917 95.543 24.6556 95.8971 24.6556C96.6447 24.6556 96.9988 25.0753 96.9988 26.1245C96.9988 27.3048 96.5922 27.6589 95.7135 27.6589C95.4775 27.6589 95.2021 27.6196 95.1627 27.6064V28.8261H94.5332V24.7081ZM95.1627 25.3638V27.0556C95.1889 27.0556 95.4643 27.095 95.6742 27.095C96.2119 27.095 96.3693 26.8196 96.3693 26.1114C96.3693 25.4425 96.1594 25.1933 95.8053 25.1933C95.4775 25.2065 95.1627 25.3638 95.1627 25.3638Z" fill="white"/>
<path d="M97.6127 24.7082H98.2291V25.0491C98.2291 25.0491 98.7144 24.7344 99.1996 24.6426V25.2721C98.675 25.377 98.2291 25.5737 98.2291 25.5737V27.5803H97.5996V24.7082H97.6127Z" fill="white"/>
<path d="M101.875 27.0557L101.889 27.5147C101.889 27.5147 101.233 27.6458 100.734 27.6458C99.8689 27.6458 99.541 27.1868 99.541 26.177C99.541 25.1278 100 24.6426 100.787 24.6426C101.587 24.6426 101.993 25.0622 101.993 25.954L101.954 26.3999H100.171C100.171 26.859 100.354 27.095 100.826 27.095C101.272 27.1081 101.875 27.0557 101.875 27.0557ZM101.364 25.9278C101.364 25.3508 101.193 25.1672 100.774 25.1672C100.354 25.1672 100.157 25.377 100.157 25.9278H101.364Z" fill="white"/>
<path d="M104.573 25.3114C104.573 25.3114 103.891 25.2196 103.55 25.2196C103.209 25.2196 103.051 25.2983 103.051 25.5343C103.051 25.7179 103.169 25.7704 103.733 25.8753C104.428 25.9933 104.664 26.1638 104.664 26.7409C104.664 27.4097 104.245 27.6589 103.524 27.6589C103.13 27.6589 102.461 27.5278 102.461 27.5278L102.487 27.0032C102.487 27.0032 103.183 27.095 103.471 27.095C103.891 27.095 104.048 27.0032 104.048 26.754C104.048 26.5573 103.956 26.4917 103.379 26.3999C102.75 26.295 102.422 26.1638 102.422 25.5474C102.422 24.9048 102.933 24.6556 103.497 24.6556C103.917 24.6556 104.573 24.7868 104.573 24.7868V25.3114Z" fill="white"/>
<path d="M107.41 26.9112C107.423 27.0817 107.502 27.1473 107.659 27.1735L107.646 27.6456C107.292 27.6456 107.095 27.6063 106.885 27.4358C106.885 27.4358 106.426 27.6456 105.954 27.6456C105.39 27.6456 105.102 27.3309 105.102 26.7276C105.102 26.1243 105.429 25.9145 106.046 25.8621L106.793 25.7965V25.5866C106.793 25.2719 106.649 25.167 106.374 25.167C105.993 25.167 105.298 25.2194 105.298 25.2194L105.272 24.7735C105.272 24.7735 105.902 24.6293 106.426 24.6293C107.121 24.6293 107.41 24.9178 107.41 25.5735V26.9112ZM106.125 26.308C105.862 26.3342 105.731 26.4522 105.731 26.7145C105.731 26.9768 105.836 27.1342 106.085 27.1342C106.413 27.1342 106.793 27.003 106.793 27.003V26.2424L106.125 26.308Z" fill="white"/>
<path d="M108.191 24.7082H108.807V25.0491C108.807 25.0491 109.292 24.7344 109.778 24.6426V25.2721C109.253 25.377 108.807 25.5737 108.807 25.5737V27.5803H108.178V24.7082H108.191Z" fill="white"/>
<path d="M110.272 23.5671H110.902V24.2229H110.272V23.5671ZM110.272 24.7081H110.902V27.5802H110.272V24.7081Z" fill="white"/>
<path d="M113.783 26.9112C113.796 27.0817 113.875 27.1473 114.032 27.1735L114.019 27.6456C113.665 27.6456 113.468 27.6063 113.258 27.4358C113.258 27.4358 112.799 27.6456 112.327 27.6456C111.763 27.6456 111.475 27.3309 111.475 26.7276C111.475 26.1243 111.802 25.9145 112.419 25.8621L113.166 25.7965V25.5866C113.166 25.2719 113.022 25.167 112.747 25.167C112.366 25.167 111.671 25.2194 111.671 25.2194L111.645 24.7735C111.645 24.7735 112.275 24.6293 112.799 24.6293C113.494 24.6293 113.783 24.9178 113.783 25.5735V26.9112ZM112.484 26.308C112.222 26.3342 112.091 26.4522 112.091 26.7145C112.091 26.9768 112.196 27.1342 112.445 27.1342C112.773 27.1342 113.153 27.003 113.153 27.003V26.2424L112.484 26.308Z" fill="white"/>
<path d="M114.598 23.5146H115.227V27.5802H114.598V23.5146Z" fill="white"/>
<path d="M118.234 27.0557L118.247 27.5147C118.247 27.5147 117.591 27.6458 117.093 27.6458C116.227 27.6458 115.899 27.1868 115.899 26.177C115.899 25.1278 116.358 24.6426 117.145 24.6426C117.945 24.6426 118.352 25.0622 118.352 25.954L118.313 26.3999H116.529C116.529 26.859 116.713 27.095 117.185 27.095C117.631 27.1081 118.234 27.0557 118.234 27.0557ZM117.722 25.9278C117.722 25.3508 117.552 25.1672 117.132 25.1672C116.713 25.1672 116.516 25.377 116.516 25.9278H117.722Z" fill="white"/>
<path d="M120.932 25.3114C120.932 25.3114 120.25 25.2196 119.909 25.2196C119.568 25.2196 119.411 25.2983 119.411 25.5343C119.411 25.7179 119.529 25.7704 120.093 25.8753C120.788 25.9933 121.024 26.1638 121.024 26.7409C121.024 27.4097 120.604 27.6589 119.883 27.6589C119.489 27.6589 118.821 27.5278 118.821 27.5278L118.847 27.0032C118.847 27.0032 119.542 27.095 119.83 27.095C120.25 27.095 120.407 27.0032 120.407 26.754C120.407 26.5573 120.316 26.4917 119.739 26.3999C119.109 26.295 118.781 26.1638 118.781 25.5474C118.781 24.9048 119.293 24.6556 119.857 24.6556C120.276 24.6556 120.932 24.7868 120.932 24.7868V25.3114Z" fill="white"/>
<defs>
<linearGradient id="paint0_linear" x1="4.98828" y1="4.97572" x2="32.0045" y2="4.97572" gradientUnits="userSpaceOnUse">
<stop stop-color="#EE2849"/>
<stop offset="1" stop-color="#F16727"/>
</linearGradient>
<linearGradient id="paint1_linear" x1="27.0298" y1="32" x2="27.0298" y2="4.98383" gradientUnits="userSpaceOnUse">
<stop stop-color="#F16727"/>
<stop offset="0.9098" stop-color="#EE2849"/>
</linearGradient>
<linearGradient id="paint2_linear" x1="0" y1="26.9998" x2="27.0162" y2="26.9998" gradientUnits="userSpaceOnUse">
<stop stop-color="#F16727"/>
<stop offset="0.9098" stop-color="#EE2849"/>
</linearGradient>
<linearGradient id="paint3_linear" x1="4.97569" y1="26.9677" x2="4.97569" y2="0" gradientUnits="userSpaceOnUse">
<stop stop-color="#EE2849"/>
<stop offset="1" stop-color="#F16727"/>
</linearGradient>
</defs>
</svg>
