<svg width="134" height="32" viewBox="0 0 134 32" fill="none" xmlns="http://www.w3.org/2000/svg">
<path d="M32.16 4.97049V9.9541C32.16 9.04918 31.9096 8.19672 31.4878 7.4623C30.6179 5.98033 29.0099 4.98361 27.1647 4.98361H5.00854V4.97049C5.00854 3.13443 6.01025 1.53443 7.49963 0.668852C8.23772 0.24918 9.09445 0 10.0039 0H27.1647C29.9194 0 32.16 2.22951 32.16 4.97049Z" fill="url(#paint0_linear)"/>
<path d="M32.1601 9.95413V27.0295C32.1601 29.7705 29.9195 32 27.1648 32H22.1562C23.0657 32 23.9224 31.7509 24.6605 31.3312C26.1499 30.4656 27.1516 28.8656 27.1516 27.0295V4.98364H27.1648C29.01 4.98364 30.618 5.98036 31.4879 7.46233C31.9097 8.19676 32.1601 9.04922 32.1601 9.95413Z" fill="url(#paint1_linear)"/>
<path d="M27.1515 27.0164V27.0295C27.1515 28.8656 26.1498 30.4656 24.6604 31.3311C23.9223 31.7508 23.0656 32 22.1561 32H4.99534C2.24066 32 0 29.7836 0 27.0295V21.9934C0 22.9115 0.250426 23.777 0.685377 24.5115C1.55528 25.9803 3.16328 26.9639 4.99534 26.9639H5.00852V27.0164H27.1515Z" fill="url(#paint2_linear)"/>
<path d="M10.0039 0C9.09443 0 8.23771 0.24918 7.49961 0.668852C6.01023 1.53443 5.00852 3.13443 5.00852 4.97049V26.977H4.99534C3.16328 26.977 1.55528 25.9934 0.685377 24.5246C0.250426 23.777 0 22.9246 0 22.0066V4.97049C0 2.22951 2.24066 0 4.99534 0H10.0039Z" fill="url(#paint3_linear)"/>
<path d="M19.3356 20.0262C19.1116 20.2229 18.8743 20.4196 18.6239 20.5901C18.3735 20.7737 18.1099 20.918 17.8331 21.0492C17.5563 21.1803 17.2663 21.2852 16.9764 21.3639C16.6864 21.4426 16.3832 21.4819 16.0801 21.4819C15.4079 21.4819 14.7884 21.3639 14.1953 21.1278C13.6154 20.8918 13.1013 20.5639 12.6532 20.1311C12.2183 19.6983 11.8624 19.1737 11.612 18.5574C11.3615 17.941 11.2297 17.2459 11.2297 16.4721V10.518H13.9844V16.4721C13.9844 16.8393 14.0371 17.1541 14.1558 17.4426C14.2612 17.7311 14.4194 17.9672 14.6039 18.1639C14.7884 18.3606 15.0125 18.5049 15.2629 18.6098C15.5133 18.7147 15.7901 18.7672 16.0801 18.7672C16.3569 18.7672 16.6337 18.7016 16.8841 18.5705C17.1345 18.4393 17.3586 18.2688 17.5431 18.059C17.7276 17.8492 17.8858 17.6 17.9912 17.3246C18.0967 17.0492 18.1494 16.7737 18.1494 16.4852V10.518H20.9041V21.2852H20.2319L19.3356 20.0262Z" fill="#475C66"/>
<path d="M51.1001 15.4623C51.1001 16.0132 51.0342 16.5509 50.8893 17.0623C50.7443 17.5738 50.5466 18.0459 50.283 18.4918C50.0194 18.9377 49.703 19.3443 49.3472 19.7115C48.9781 20.0787 48.5827 20.3935 48.1214 20.6558C47.6733 20.9181 47.1856 21.1148 46.6847 21.259C46.1839 21.4033 45.6435 21.4689 45.0767 21.4689H41.439V9.45578H45.0767C45.6303 9.45578 46.1707 9.52135 46.6847 9.66562C47.1988 9.80988 47.6733 10.0066 48.1214 10.2689C48.5695 10.5312 48.9781 10.8459 49.3472 11.2132C49.7162 11.5804 50.0194 11.9869 50.283 12.4328C50.5466 12.8787 50.7443 13.3509 50.8893 13.8623C51.0342 14.3738 51.1001 14.8984 51.1001 15.4623ZM48.6881 15.4623C48.6881 14.964 48.5959 14.505 48.4114 14.0591C48.2268 13.6263 47.9632 13.2459 47.6337 12.9181C47.3042 12.5902 46.922 12.3279 46.487 12.1443C46.0521 11.9607 45.5776 11.8558 45.0767 11.8558H43.8773V19.0558H45.0767C45.5776 19.0558 46.0389 18.964 46.487 18.7804C46.922 18.5968 47.3174 18.3345 47.6337 18.0066C47.9632 17.6787 48.2136 17.2984 48.4114 16.8656C48.5959 16.4197 48.6881 15.9476 48.6881 15.4623Z" fill="#475C66"/>
<path d="M56.0427 19.2657C56.135 19.2919 56.2272 19.3181 56.3063 19.3181C56.3986 19.3312 56.4908 19.3312 56.5699 19.3312C56.794 19.3312 57.0049 19.305 57.2157 19.2394C57.4266 19.1739 57.6243 19.0952 57.7957 18.9771C57.9802 18.8591 58.1384 18.728 58.2833 18.5575C58.4283 18.387 58.547 18.2165 58.626 18.0067L60.3131 19.6853C60.1022 19.987 59.8518 20.2624 59.575 20.4985C59.2982 20.7345 58.9951 20.9444 58.6788 21.1148C58.3624 21.2853 58.0197 21.4034 57.6639 21.4952C57.308 21.587 56.939 21.6263 56.5699 21.6263C55.9373 21.6263 55.3441 21.5083 54.7774 21.2722C54.2238 21.0362 53.7361 20.7083 53.3144 20.2886C52.8926 19.8689 52.5631 19.3706 52.3258 18.7935C52.0886 18.2165 51.97 17.587 51.97 16.8919C51.97 16.1837 52.0886 15.5411 52.3258 14.9509C52.5631 14.3607 52.8926 13.8624 53.3144 13.4558C53.7361 13.0493 54.2238 12.7214 54.7774 12.4985C55.331 12.2755 55.9373 12.1575 56.5699 12.1575C56.939 12.1575 57.308 12.1968 57.6771 12.2886C58.0329 12.3804 58.3756 12.5116 58.7051 12.6689C59.0214 12.8394 59.3246 13.0362 59.6146 13.2853C59.8913 13.5345 60.1418 13.7968 60.3527 14.0985L56.0427 19.2657ZM57.2157 14.5575C57.1103 14.5181 57.0049 14.4919 56.8994 14.4788C56.794 14.4657 56.6885 14.4657 56.5699 14.4657C56.2536 14.4657 55.9636 14.5181 55.6868 14.6362C55.41 14.7542 55.1728 14.9116 54.9619 15.1214C54.751 15.3312 54.5929 15.5935 54.4742 15.8821C54.3556 16.1837 54.3029 16.5116 54.3029 16.8919C54.3029 16.9706 54.3029 17.0755 54.3161 17.1804C54.3293 17.2853 54.3424 17.3903 54.3556 17.5083C54.3688 17.6132 54.3952 17.7181 54.4215 17.823C54.4479 17.928 54.4874 18.0066 54.527 18.0853L57.2157 14.5575Z" fill="#475C66"/>
<path d="M63.7929 21.4558H61.4995V12.4984H62.0531L62.8044 13.364C63.1734 13.023 63.5952 12.7738 64.0565 12.5902C64.531 12.4066 65.0187 12.3148 65.5195 12.3148C66.0731 12.3148 66.5871 12.4197 67.0748 12.6296C67.5625 12.8394 67.9842 13.1279 68.3533 13.4951C68.7223 13.8624 68.9991 14.282 69.21 14.7804C69.4209 15.2787 69.5263 15.7902 69.5263 16.341V21.4689H67.233V16.341C67.233 16.105 67.1934 15.882 67.1012 15.6722C67.0089 15.4624 66.8903 15.2788 66.7321 15.1214C66.5739 14.964 66.3894 14.846 66.1917 14.7542C65.9808 14.6624 65.7568 14.623 65.5327 14.623C65.2955 14.623 65.0582 14.6624 64.8473 14.7542C64.6364 14.846 64.4519 14.964 64.2937 15.1214C64.1356 15.2788 64.017 15.4624 63.9247 15.6722C63.8324 15.882 63.7929 16.105 63.7929 16.341V21.4558Z" fill="#475C66"/>
<path d="M77.7376 20.4066C77.5531 20.5771 77.3554 20.7344 77.1445 20.8787C76.9336 21.023 76.7095 21.1541 76.4855 21.259C76.2614 21.364 76.0242 21.4558 75.7737 21.5213C75.5233 21.5869 75.286 21.6131 75.0356 21.6131C74.482 21.6131 73.9548 21.5213 73.4672 21.3246C72.9795 21.1279 72.5577 20.8525 72.1887 20.4984C71.8196 20.1443 71.5297 19.6984 71.3188 19.1869C71.1079 18.6754 71.0024 18.0984 71.0024 17.4558V12.4984H73.2826V17.4426C73.2826 17.7443 73.3354 18.0197 73.4276 18.2558C73.5199 18.4918 73.6385 18.6885 73.7967 18.859C73.9548 19.0164 74.1394 19.1476 74.3502 19.2262C74.5611 19.3049 74.7852 19.3574 75.0224 19.3574C75.2597 19.3574 75.4838 19.3049 75.6946 19.2C75.9055 19.0951 76.0901 18.9508 76.2482 18.7672C76.4064 18.5836 76.525 18.3869 76.6173 18.164C76.7095 17.941 76.7491 17.7049 76.7491 17.4689V12.4984H79.0424V21.4558H78.4889L77.7376 20.4066Z" fill="#475C66"/>
<path d="M83.0888 21.4558H80.7954V12.4984H81.349L82.1003 13.364C82.4693 13.023 82.8911 12.7738 83.3524 12.5902C83.8269 12.4066 84.3146 12.3148 84.8154 12.3148C85.369 12.3148 85.883 12.4197 86.3707 12.6296C86.8584 12.8394 87.2801 13.1279 87.6492 13.4951C88.0182 13.8624 88.295 14.282 88.5059 14.7804C88.7168 15.2656 88.8222 15.7902 88.8222 16.341V21.4689H86.5288V16.341C86.5288 16.105 86.4893 15.882 86.397 15.6722C86.3048 15.4624 86.1862 15.2788 86.028 15.1214C85.8698 14.964 85.6853 14.846 85.4876 14.7542C85.2767 14.6624 85.0526 14.623 84.8286 14.623C84.5913 14.623 84.3541 14.6624 84.1432 14.7542C83.9323 14.846 83.7478 14.964 83.5896 15.1214C83.4315 15.2788 83.3129 15.4624 83.2206 15.6722C83.1283 15.882 83.0888 16.105 83.0888 16.341V21.4558Z" fill="#475C66"/>
<path d="M98.3517 14.282L96.6646 15.9607C96.5855 15.7247 96.4669 15.5148 96.3219 15.3312C96.1769 15.1476 96.0056 14.9902 95.8342 14.8591C95.6497 14.7279 95.452 14.6361 95.2411 14.5706C95.0302 14.505 94.8062 14.4656 94.5821 14.4656C94.2658 14.4656 93.9758 14.5312 93.699 14.6624C93.4222 14.7935 93.185 14.9771 92.9741 15.2001C92.7632 15.4361 92.6051 15.7115 92.4864 16.0263C92.3678 16.3411 92.3151 16.6952 92.3151 17.0755C92.3151 17.3902 92.3678 17.6788 92.4864 17.9542C92.6051 18.2296 92.7632 18.4656 92.9741 18.6755C93.185 18.8853 93.4222 19.0427 93.699 19.1607C93.9758 19.2788 94.2658 19.3312 94.5821 19.3312C94.8062 19.3312 95.0171 19.305 95.2279 19.2394C95.4388 19.1738 95.6365 19.0951 95.8079 18.9771C95.9924 18.8591 96.1506 18.7279 96.2955 18.5574C96.4405 18.387 96.5592 18.2165 96.6382 18.0066L98.3253 19.6853C98.1144 19.987 97.864 20.2624 97.5872 20.4984C97.3104 20.7345 97.0073 20.9443 96.691 21.1148C96.3746 21.2853 96.0319 21.4033 95.6761 21.4951C95.3202 21.587 94.9512 21.6263 94.5821 21.6263C93.9494 21.6263 93.3563 21.5083 92.7896 21.2722C92.236 21.0361 91.7483 20.7083 91.3266 20.3017C90.9048 19.8952 90.5753 19.4099 90.338 18.8591C90.1008 18.3083 89.9822 17.7181 89.9822 17.0886C89.9822 16.4066 90.1008 15.764 90.338 15.1607C90.5753 14.5574 90.9048 14.046 91.3266 13.6001C91.7483 13.1542 92.236 12.8001 92.7896 12.5509C93.3432 12.2886 93.9494 12.1706 94.5821 12.1706C94.9512 12.1706 95.3202 12.223 95.6893 12.3148C96.0451 12.4066 96.401 12.5509 96.7173 12.7345C97.0468 12.9181 97.35 13.1411 97.6268 13.4033C97.9035 13.6394 98.1408 13.9411 98.3517 14.282Z" fill="#475C66"/>
<path d="M102.174 10.0591C102.174 10.2689 102.134 10.4656 102.055 10.6492C101.976 10.8328 101.857 10.9902 101.726 11.1345C101.581 11.2656 101.423 11.3837 101.238 11.4623C101.053 11.541 100.856 11.5804 100.632 11.5804C100.421 11.5804 100.223 11.541 100.025 11.4623C99.8409 11.3837 99.6695 11.2787 99.5377 11.1345C99.4059 11.0033 99.2873 10.8328 99.2082 10.6492C99.1291 10.4656 99.0896 10.2689 99.0896 10.0591C99.0896 9.84923 99.1291 9.6525 99.2082 9.4689C99.2873 9.28529 99.3928 9.1148 99.5377 8.98365C99.6695 8.8525 99.8409 8.73447 100.025 8.65578C100.21 8.57709 100.408 8.53775 100.632 8.53775C100.843 8.53775 101.04 8.57709 101.238 8.65578C101.423 8.73447 101.594 8.83939 101.726 8.98365C101.871 9.1148 101.976 9.28529 102.055 9.4689C102.134 9.6525 102.174 9.84923 102.174 10.0591ZM101.778 21.4558H99.4718V12.4984H101.778V21.4558Z" fill="#475C66"/>
<path d="M112.244 21.4558H111.69L110.794 20.223C110.57 20.4198 110.346 20.6034 110.095 20.7739C109.845 20.9444 109.594 21.0886 109.331 21.2198C109.067 21.3509 108.79 21.4427 108.5 21.5214C108.224 21.6001 107.934 21.6263 107.644 21.6263C107.011 21.6263 106.418 21.5214 105.851 21.3116C105.298 21.1017 104.81 20.787 104.388 20.3804C103.966 19.9739 103.637 19.4755 103.4 18.8985C103.162 18.3083 103.044 17.6526 103.044 16.8919C103.044 16.1968 103.162 15.5542 103.4 14.9771C103.637 14.4001 103.966 13.8886 104.388 13.4689C104.81 13.0493 105.298 12.7214 105.851 12.4985C106.405 12.2624 107.011 12.1575 107.644 12.1575C107.934 12.1575 108.224 12.1968 108.514 12.2624C108.803 12.3411 109.08 12.4329 109.344 12.564C109.607 12.6952 109.871 12.8394 110.108 13.0099C110.346 13.1804 110.583 13.364 110.794 13.5739L111.69 12.5116H112.244V21.4558ZM109.937 16.8919C109.937 16.5771 109.871 16.2755 109.752 15.987C109.634 15.6985 109.463 15.4362 109.265 15.2132C109.054 14.9903 108.817 14.8067 108.54 14.6755C108.263 14.5444 107.96 14.4657 107.657 14.4657C107.34 14.4657 107.051 14.5181 106.774 14.623C106.497 14.728 106.26 14.8853 106.049 15.0952C105.838 15.305 105.68 15.5542 105.561 15.8558C105.443 16.1575 105.39 16.5116 105.39 16.8919C105.39 17.2853 105.443 17.6263 105.561 17.928C105.68 18.2296 105.838 18.4919 106.049 18.6886C106.26 18.8985 106.497 19.0558 106.774 19.1607C107.051 19.2657 107.34 19.3181 107.657 19.3181C107.973 19.3181 108.263 19.2526 108.54 19.1083C108.817 18.9771 109.054 18.7935 109.265 18.5706C109.476 18.3476 109.634 18.0853 109.752 17.7968C109.871 17.5083 109.937 17.2067 109.937 16.8919Z" fill="#475C66"/>
<path d="M118.939 21.4558H113.694V19.1738H118.939C119.098 19.1738 119.229 19.1213 119.348 19.0033C119.467 18.8984 119.519 18.7541 119.519 18.5967C119.519 18.4394 119.467 18.3344 119.348 18.282C119.229 18.2295 119.098 18.2033 118.939 18.2033H116.554C116.158 18.2033 115.789 18.1246 115.433 17.9803C115.091 17.8361 114.788 17.6262 114.524 17.364C114.26 17.1017 114.063 16.8 113.918 16.459C113.773 16.1181 113.694 15.7377 113.694 15.3443C113.694 14.9508 113.773 14.5836 113.918 14.2295C114.063 13.8885 114.274 13.5869 114.524 13.3246C114.788 13.0623 115.091 12.8656 115.433 12.7213C115.776 12.5771 116.158 12.4984 116.554 12.4984H121.206V14.7803H116.554C116.396 14.7803 116.264 14.8328 116.145 14.9508C116.027 15.0689 115.974 15.2 115.974 15.3574C115.974 15.5148 116.027 15.659 116.145 15.7771C116.264 15.8951 116.396 15.9476 116.554 15.9476H118.939C119.335 15.9476 119.704 16.0131 120.047 16.1443C120.389 16.2754 120.692 16.459 120.956 16.6951C121.22 16.9312 121.417 17.2066 121.575 17.5344C121.72 17.8623 121.799 18.2295 121.799 18.6099C121.799 19.0033 121.72 19.3705 121.575 19.7246C121.43 20.0656 121.22 20.3672 120.956 20.6295C120.692 20.8918 120.389 21.0885 120.047 21.2459C119.704 21.3771 119.335 21.4558 118.939 21.4558Z" fill="#475C66"/>
<path d="M87.0562 23.6459H89.5472V24.1967H87.6888V25.3115H89.1914V25.8623H87.6888V27.0164H89.5472V27.5803H87.0562V23.6459Z" fill="#475C66"/>
<path d="M90.1799 27.5934V24.7213H90.7994V24.9049C90.7994 24.9049 91.208 24.6688 91.5507 24.6688C91.9065 24.6688 92.1174 24.7606 92.2888 24.9442C92.2888 24.9442 92.816 24.6688 93.2773 24.6688C94.0681 24.6688 94.279 25.0885 94.279 26.059V27.5934H93.6595V26.0721C93.6595 25.4951 93.5936 25.2196 93.1719 25.2196C92.8555 25.2196 92.5128 25.377 92.5128 25.377C92.5392 25.4295 92.5524 25.836 92.5524 26.1114V27.5934H91.9329V26.1114C91.9329 25.4688 91.867 25.2065 91.4321 25.2065C91.1026 25.2065 90.8126 25.3508 90.8126 25.3508V27.5803H90.1799V27.5934Z" fill="#475C66"/>
<path d="M95.0171 24.7082H95.6366V24.8918C95.6366 24.8918 96.032 24.6557 96.3878 24.6557C97.1391 24.6557 97.495 25.0754 97.495 26.1246C97.495 27.3049 97.0864 27.659 96.2033 27.659C95.9661 27.659 95.6893 27.6196 95.6497 27.6065V28.8262H95.0171V24.7082ZM95.6497 25.3639V27.0557C95.6761 27.0557 95.9529 27.095 96.1638 27.095C96.7042 27.095 96.8623 26.8196 96.8623 26.1114C96.8623 25.4426 96.6514 25.1934 96.2956 25.1934C95.9661 25.2065 95.6497 25.3639 95.6497 25.3639Z" fill="#475C66"/>
<path d="M98.1145 24.7082H98.734V25.0492C98.734 25.0492 99.2217 24.7344 99.7093 24.6426V25.2721C99.1821 25.3771 98.734 25.5738 98.734 25.5738V27.5803H98.1013V24.7082H98.1145Z" fill="#475C66"/>
<path d="M102.398 27.0558L102.411 27.5148C102.411 27.5148 101.752 27.6459 101.251 27.6459C100.382 27.6459 100.052 27.1869 100.052 26.1771C100.052 25.1279 100.513 24.6426 101.304 24.6426C102.108 24.6426 102.517 25.0623 102.517 25.9541L102.477 26.4H100.685C100.685 26.859 100.869 27.0951 101.344 27.0951C101.792 27.1082 102.398 27.0558 102.398 27.0558ZM101.884 25.9279C101.884 25.3508 101.713 25.1672 101.291 25.1672C100.869 25.1672 100.671 25.3771 100.671 25.9279H101.884Z" fill="#475C66"/>
<path d="M105.113 25.3114C105.113 25.3114 104.428 25.2196 104.085 25.2196C103.742 25.2196 103.584 25.2983 103.584 25.5344C103.584 25.718 103.703 25.7705 104.27 25.8754C104.968 25.9934 105.206 26.1639 105.206 26.7409C105.206 27.4098 104.784 27.659 104.059 27.659C103.663 27.659 102.991 27.5278 102.991 27.5278L103.018 27.0032C103.018 27.0032 103.716 27.095 104.006 27.095C104.428 27.095 104.586 27.0032 104.586 26.7541C104.586 26.5573 104.494 26.4918 103.914 26.4C103.281 26.295 102.952 26.1639 102.952 25.5475C102.952 24.9049 103.466 24.6557 104.032 24.6557C104.454 24.6557 105.113 24.7868 105.113 24.7868V25.3114Z" fill="#475C66"/>
<path d="M107.96 26.9115C107.973 27.082 108.052 27.1476 108.211 27.1738L108.197 27.6459C107.842 27.6459 107.644 27.6066 107.433 27.4361C107.433 27.4361 106.972 27.6459 106.497 27.6459C105.93 27.6459 105.64 27.3312 105.64 26.7279C105.64 26.1246 105.97 25.9148 106.589 25.8623L107.341 25.7968V25.5869C107.341 25.2722 107.196 25.1673 106.919 25.1673C106.537 25.1673 105.838 25.2197 105.838 25.2197L105.812 24.7738C105.812 24.7738 106.444 24.6295 106.972 24.6295C107.67 24.6295 107.96 24.9181 107.96 25.5738V26.9115ZM106.668 26.3082C106.405 26.3345 106.273 26.4525 106.273 26.7148C106.273 26.9771 106.378 27.1345 106.629 27.1345C106.958 27.1345 107.341 27.0033 107.341 27.0033V26.2427L106.668 26.3082Z" fill="#475C66"/>
<path d="M108.751 24.7082H109.37V25.0492C109.37 25.0492 109.858 24.7344 110.346 24.6426V25.2721C109.819 25.3771 109.37 25.5738 109.37 25.5738V27.5803H108.738V24.7082H108.751Z" fill="#475C66"/>
<path d="M110.833 23.5672H111.466V24.2229H110.833V23.5672ZM110.833 24.7082H111.466V27.5803H110.833V24.7082Z" fill="#475C66"/>
<path d="M114.366 26.9115C114.379 27.082 114.458 27.1476 114.616 27.1738L114.603 27.6459C114.247 27.6459 114.05 27.6066 113.839 27.4361C113.839 27.4361 113.377 27.6459 112.903 27.6459C112.336 27.6459 112.046 27.3312 112.046 26.7279C112.046 26.1246 112.376 25.9148 112.995 25.8623L113.746 25.7968V25.5869C113.746 25.2722 113.601 25.1673 113.325 25.1673C112.942 25.1673 112.244 25.2197 112.244 25.2197L112.217 24.7738C112.217 24.7738 112.85 24.6295 113.377 24.6295C114.076 24.6295 114.366 24.9181 114.366 25.5738V26.9115ZM113.061 26.3082C112.797 26.3345 112.666 26.4525 112.666 26.7148C112.666 26.9771 112.771 27.1345 113.021 27.1345C113.351 27.1345 113.733 27.0033 113.733 27.0033V26.2427L113.061 26.3082Z" fill="#475C66"/>
<path d="M115.183 23.5147H115.816V27.5803H115.183V23.5147Z" fill="#475C66"/>
<path d="M118.834 27.0558L118.847 27.5148C118.847 27.5148 118.188 27.6459 117.687 27.6459C116.817 27.6459 116.488 27.1869 116.488 26.1771C116.488 25.1279 116.949 24.6426 117.74 24.6426C118.544 24.6426 118.953 25.0623 118.953 25.9541L118.913 26.4H117.12C117.12 26.859 117.305 27.0951 117.779 27.0951C118.228 27.1082 118.834 27.0558 118.834 27.0558ZM118.32 25.9279C118.32 25.3508 118.149 25.1672 117.727 25.1672C117.305 25.1672 117.107 25.3771 117.107 25.9279H118.32Z" fill="#475C66"/>
<path d="M121.549 25.3114C121.549 25.3114 120.864 25.2196 120.521 25.2196C120.178 25.2196 120.02 25.2983 120.02 25.5344C120.02 25.718 120.139 25.7705 120.705 25.8754C121.404 25.9934 121.641 26.1639 121.641 26.7409C121.641 27.4098 121.22 27.659 120.495 27.659C120.099 27.659 119.427 27.5278 119.427 27.5278L119.453 27.0032C119.453 27.0032 120.152 27.095 120.442 27.095C120.864 27.095 121.022 27.0032 121.022 26.7541C121.022 26.5573 120.93 26.4918 120.35 26.4C119.717 26.295 119.387 26.1639 119.387 25.5475C119.387 24.9049 119.901 24.6557 120.468 24.6557C120.89 24.6557 121.549 24.7868 121.549 24.7868V25.3114Z" fill="#475C66"/>
<defs>
<linearGradient id="paint0_linear" x1="5.00854" y1="4.97575" x2="32.16" y2="4.97575" gradientUnits="userSpaceOnUse">
<stop stop-color="#EE2849"/>
<stop offset="1" stop-color="#F16727"/>
</linearGradient>
<linearGradient id="paint1_linear" x1="27.1602" y1="32" x2="27.1602" y2="4.98364" gradientUnits="userSpaceOnUse">
<stop stop-color="#F16727"/>
<stop offset="0.9098" stop-color="#EE2849"/>
</linearGradient>
<linearGradient id="paint2_linear" x1="0" y1="27" x2="27.1515" y2="27" gradientUnits="userSpaceOnUse">
<stop stop-color="#F16727"/>
<stop offset="0.9098" stop-color="#EE2849"/>
</linearGradient>
<linearGradient id="paint3_linear" x1="5.0006" y1="26.9679" x2="5.0006" y2="0" gradientUnits="userSpaceOnUse">
<stop stop-color="#EE2849"/>
<stop offset="1" stop-color="#F16727"/>
</linearGradient>
</defs>
</svg>
