<svg width="184" height="44" viewBox="0 0 184 44" fill="none" xmlns="http://www.w3.org/2000/svg">
<path d="M44.1596 6.83443V13.6869C44.1596 12.4426 43.8157 11.2705 43.2365 10.2607C42.0421 8.22295 39.8341 6.85246 37.3003 6.85246H6.87695V6.83443C6.87695 4.30984 8.25243 2.10984 10.2975 0.919672C11.3111 0.342623 12.4874 0 13.7362 0H37.3003C41.0828 0 44.1596 3.06557 44.1596 6.83443Z" fill="url(#paint0_linear)"/>
<path d="M44.1605 13.687V37.1657C44.1605 40.9345 41.0838 44.0001 37.3012 44.0001H30.4238C31.6726 44.0001 32.849 43.6575 33.8625 43.0804C35.9076 41.8902 37.2831 39.6902 37.2831 37.1657V6.85254H37.3012C39.835 6.85254 42.043 8.22303 43.2375 10.2607C43.8166 11.2706 44.1605 12.4427 44.1605 13.687Z" fill="url(#paint1_linear)"/>
<path d="M37.2826 37.1475V37.1655C37.2826 39.6901 35.9071 41.8901 33.862 43.0803C32.8485 43.6573 31.6721 44 30.4233 44H6.85928C3.07672 44 0 40.9524 0 37.1655V30.241C0 31.5033 0.343869 32.6934 0.941115 33.7033C2.13561 35.7229 4.34361 37.0754 6.85928 37.0754H6.87738V37.1475H37.2826Z" fill="url(#paint2_linear)"/>
<path d="M13.7367 0C12.4879 0 11.3115 0.342623 10.298 0.919672C8.25285 2.10984 6.87738 4.30984 6.87738 6.83442V37.0934H6.85928C4.34361 37.0934 2.13561 35.741 0.941115 33.7213C0.343869 32.6934 0 31.5213 0 30.259V6.83442C0 3.06557 3.07672 0 6.85928 0H13.7367Z" fill="url(#paint3_linear)"/>
<path d="M26.5504 27.5359C26.2427 27.8064 25.917 28.0769 25.5731 28.3113C25.2292 28.5638 24.8673 28.7622 24.4872 28.9425C24.1071 29.1228 23.709 29.2671 23.3108 29.3753C22.9126 29.4835 22.4964 29.5376 22.0801 29.5376C21.1571 29.5376 20.3065 29.3753 19.4921 29.0507C18.6957 28.7261 17.9899 28.2753 17.3745 27.6802C16.7773 27.0851 16.2886 26.3638 15.9448 25.5163C15.6009 24.6687 15.4199 23.713 15.4199 22.649V14.4622H19.2025V22.649C19.2025 23.154 19.2749 23.5867 19.4378 23.9835C19.5825 24.3802 19.7997 24.7048 20.0531 24.9753C20.3065 25.2458 20.6142 25.4441 20.958 25.5884C21.3019 25.7326 21.682 25.8048 22.0801 25.8048C22.4602 25.8048 22.8403 25.7146 23.1841 25.5343C23.528 25.354 23.8357 25.1195 24.089 24.831C24.3424 24.5425 24.5596 24.1999 24.7044 23.8212C24.8492 23.4425 24.9216 23.0638 24.9216 22.6671V14.4622H28.7041V29.2671H27.7811L26.5504 27.5359Z" fill="white"/>
<path d="M70.1675 21.2606C70.1675 22.018 70.077 22.7573 69.8779 23.4606C69.6788 24.1639 69.4073 24.8131 69.0454 25.4262C68.6834 26.0393 68.249 26.5983 67.7604 27.1032C67.2536 27.6081 66.7107 28.0409 66.0772 28.4016C65.4619 28.7622 64.7922 29.0327 64.1045 29.2311C63.4168 29.4294 62.6747 29.5196 61.8965 29.5196H56.9014V13.0016H61.8965C62.6566 13.0016 63.3987 13.0918 64.1045 13.2901C64.8103 13.4885 65.4619 13.759 66.0772 14.1196C66.6926 14.4803 67.2536 14.9131 67.7604 15.418C68.2671 15.9229 68.6834 16.4819 69.0454 17.095C69.4073 17.7081 69.6788 18.3573 69.8779 19.0606C70.077 19.7639 70.1675 20.4852 70.1675 21.2606ZM66.8555 21.2606C66.8555 20.5754 66.7288 19.9442 66.4754 19.3311C66.222 18.736 65.86 18.2131 65.4076 17.7622C64.9551 17.3114 64.4303 16.9508 63.833 16.6983C63.2358 16.4458 62.5842 16.3016 61.8965 16.3016H60.2496V26.2016H61.8965C62.5842 26.2016 63.2177 26.0753 63.833 25.8229C64.4303 25.5704 64.9732 25.2098 65.4076 24.759C65.86 24.3081 66.2039 23.7852 66.4754 23.1901C66.7288 22.577 66.8555 21.9278 66.8555 21.2606Z" fill="white"/>
<path d="M76.9547 26.4903C77.0814 26.5264 77.2081 26.5625 77.3167 26.5625C77.4434 26.5805 77.57 26.5805 77.6786 26.5805C77.9863 26.5805 78.2759 26.5444 78.5655 26.4543C78.855 26.3641 79.1265 26.2559 79.3618 26.0936C79.6152 25.9313 79.8323 25.751 80.0314 25.5166C80.2305 25.2821 80.3934 25.0477 80.502 24.7592L82.8186 27.0674C82.529 27.4821 82.1851 27.8608 81.8051 28.1854C81.425 28.51 81.0087 28.7985 80.5744 29.0329C80.14 29.2674 79.6695 29.4297 79.1808 29.5559C78.6921 29.6821 78.1854 29.7362 77.6786 29.7362C76.8099 29.7362 75.9955 29.5739 75.2173 29.2493C74.4571 28.9247 73.7875 28.4739 73.2083 27.8969C72.6292 27.3198 72.1767 26.6346 71.851 25.8411C71.5252 25.0477 71.3623 24.1821 71.3623 23.2264C71.3623 22.2526 71.5252 21.369 71.851 20.5575C72.1767 19.7461 72.6292 19.0608 73.2083 18.5018C73.7875 17.9428 74.4571 17.492 75.2173 17.1854C75.9774 16.8788 76.8099 16.7166 77.6786 16.7166C78.1854 16.7166 78.6921 16.7707 79.1989 16.8969C79.6876 17.0231 80.1581 17.2034 80.6106 17.4198C81.0449 17.6543 81.4612 17.9248 81.8594 18.2674C82.2394 18.61 82.5833 18.9707 82.8729 19.3854L76.9547 26.4903ZM78.5655 20.0166C78.4207 19.9625 78.2759 19.9264 78.1311 19.9084C77.9863 19.8903 77.8415 19.8903 77.6786 19.8903C77.2443 19.8903 76.8461 19.9625 76.466 20.1247C76.086 20.287 75.7602 20.5034 75.4706 20.792C75.1811 21.0805 74.9639 21.4411 74.801 21.8379C74.6381 22.2526 74.5657 22.7034 74.5657 23.2264C74.5657 23.3346 74.5657 23.4788 74.5838 23.6231C74.6019 23.7674 74.62 23.9116 74.6381 24.0739C74.6562 24.2182 74.6924 24.3625 74.7286 24.5067C74.7648 24.651 74.8191 24.7592 74.8734 24.8674L78.5655 20.0166Z" fill="white"/>
<path d="M87.5964 29.5017H84.4473V17.1853H85.2074L86.239 18.3755C86.7458 17.9066 87.3249 17.564 87.9584 17.3115C88.6099 17.0591 89.2795 16.9329 89.9673 16.9329C90.7274 16.9329 91.4332 17.0771 92.1029 17.3656C92.7725 17.6542 93.3517 18.0509 93.8584 18.5558C94.3652 19.0607 94.7452 19.6378 95.0348 20.323C95.3244 21.0083 95.4692 21.7115 95.4692 22.4689V29.5197H92.3201V22.4689C92.3201 22.1443 92.2658 21.8378 92.1391 21.5492C92.0124 21.2607 91.8495 21.0083 91.6323 20.7919C91.4151 20.5755 91.1618 20.4132 90.8903 20.287C90.6007 20.1607 90.293 20.1066 89.9854 20.1066C89.6596 20.1066 89.3338 20.1607 89.0443 20.287C88.7547 20.4132 88.5013 20.5755 88.2841 20.7919C88.0669 21.0083 87.9041 21.2607 87.7774 21.5492C87.6507 21.8378 87.5964 22.1443 87.5964 22.4689V29.5017Z" fill="white"/>
<path d="M106.744 28.0591C106.491 28.2935 106.22 28.5099 105.93 28.7082C105.64 28.9066 105.333 29.0869 105.025 29.2312C104.717 29.3755 104.392 29.5017 104.048 29.5919C103.704 29.682 103.378 29.7181 103.034 29.7181C102.274 29.7181 101.55 29.5919 100.88 29.3214C100.211 29.0509 99.6317 28.6722 99.1249 28.1853C98.6182 27.6984 98.22 27.0853 97.9304 26.382C97.6409 25.6787 97.4961 24.8853 97.4961 24.0017V17.1853H100.627V23.9837C100.627 24.3984 100.7 24.7771 100.826 25.1017C100.953 25.4263 101.116 25.6968 101.333 25.9312C101.55 26.1476 101.804 26.3279 102.093 26.4361C102.383 26.5443 102.69 26.6164 103.016 26.6164C103.342 26.6164 103.65 26.5443 103.939 26.4001C104.229 26.2558 104.482 26.0574 104.699 25.805C104.916 25.5525 105.079 25.282 105.206 24.9755C105.333 24.6689 105.387 24.3443 105.387 24.0197V17.1853H108.536V29.5017H107.776L106.744 28.0591Z" fill="white"/>
<path d="M114.092 29.5017H110.943V17.1853H111.703L112.735 18.3755C113.242 17.9066 113.821 17.564 114.454 17.3115C115.106 17.0591 115.776 16.9329 116.463 16.9329C117.223 16.9329 117.929 17.0771 118.599 17.3656C119.269 17.6542 119.848 18.0509 120.355 18.5558C120.861 19.0607 121.241 19.6378 121.531 20.323C121.82 20.9902 121.965 21.7115 121.965 22.4689V29.5197H118.816V22.4689C118.816 22.1443 118.762 21.8378 118.635 21.5492C118.508 21.2607 118.346 21.0083 118.128 20.7919C117.911 20.5755 117.658 20.4132 117.386 20.287C117.097 20.1607 116.789 20.1066 116.481 20.1066C116.156 20.1066 115.83 20.1607 115.54 20.287C115.251 20.4132 114.997 20.5755 114.78 20.7919C114.563 21.0083 114.4 21.2607 114.273 21.5492C114.147 21.8378 114.092 22.1443 114.092 22.4689V29.5017Z" fill="white"/>
<path d="M135.05 19.6378L132.733 21.946C132.625 21.6214 132.462 21.3329 132.263 21.0804C132.064 20.8279 131.829 20.6115 131.593 20.4312C131.34 20.2509 131.068 20.1247 130.779 20.0345C130.489 19.9443 130.182 19.8902 129.874 19.8902C129.44 19.8902 129.041 19.9804 128.661 20.1607C128.281 20.3411 127.956 20.5935 127.666 20.9001C127.376 21.2247 127.159 21.6033 126.996 22.0361C126.833 22.4689 126.761 22.9558 126.761 23.4788C126.761 23.9115 126.833 24.3083 126.996 24.687C127.159 25.0656 127.376 25.3902 127.666 25.6788C127.956 25.9673 128.281 26.1837 128.661 26.346C129.041 26.5083 129.44 26.5804 129.874 26.5804C130.182 26.5804 130.471 26.5443 130.761 26.4542C131.05 26.364 131.322 26.2558 131.557 26.0935C131.81 25.9312 132.028 25.7509 132.227 25.5165C132.426 25.282 132.589 25.0476 132.697 24.7591L135.014 27.0673C134.724 27.482 134.38 27.8607 134 28.1853C133.62 28.5099 133.204 28.7984 132.77 29.0329C132.335 29.2673 131.865 29.4296 131.376 29.5558C130.887 29.682 130.381 29.7361 129.874 29.7361C129.005 29.7361 128.191 29.5738 127.413 29.2492C126.652 28.9247 125.983 28.4738 125.404 27.9148C124.825 27.3558 124.372 26.6886 124.046 25.9312C123.721 25.1738 123.558 24.3624 123.558 23.4968C123.558 22.5591 123.721 21.6755 124.046 20.846C124.372 20.0165 124.825 19.3132 125.404 18.7001C125.983 18.087 126.652 17.6001 127.413 17.2574C128.173 16.8968 129.005 16.7345 129.874 16.7345C130.381 16.7345 130.887 16.8066 131.394 16.9329C131.883 17.0591 132.372 17.2574 132.806 17.5099C133.258 17.7624 133.675 18.0689 134.055 18.4296C134.435 18.7542 134.76 19.1689 135.05 19.6378Z" fill="white"/>
<path d="M140.299 13.8312C140.299 14.1197 140.244 14.3902 140.136 14.6427C140.027 14.8951 139.864 15.1115 139.683 15.3099C139.484 15.4902 139.267 15.6525 139.014 15.7607C138.76 15.8689 138.489 15.923 138.181 15.923C137.891 15.923 137.62 15.8689 137.348 15.7607C137.095 15.6525 136.86 15.5082 136.679 15.3099C136.498 15.1295 136.335 14.8951 136.226 14.6427C136.118 14.3902 136.063 14.1197 136.063 13.8312C136.063 13.5427 136.118 13.2722 136.226 13.0197C136.335 12.7672 136.48 12.5328 136.679 12.3525C136.86 12.1722 137.095 12.0099 137.348 11.9017C137.602 11.7935 137.873 11.7394 138.181 11.7394C138.471 11.7394 138.742 11.7935 139.014 11.9017C139.267 12.0099 139.502 12.1541 139.683 12.3525C139.882 12.5328 140.027 12.7672 140.136 13.0197C140.244 13.2722 140.299 13.5427 140.299 13.8312ZM139.756 29.5017H136.588V17.1853H139.756V29.5017Z" fill="white"/>
<path d="M154.126 29.5018H153.366L152.135 27.8067C151.827 28.0772 151.52 28.3297 151.176 28.5641C150.832 28.7985 150.488 28.9969 150.126 29.1772C149.764 29.3575 149.384 29.4838 148.986 29.592C148.606 29.7002 148.208 29.7362 147.809 29.7362C146.941 29.7362 146.126 29.592 145.348 29.3034C144.588 29.0149 143.918 28.5821 143.339 28.0231C142.76 27.4641 142.308 26.7788 141.982 25.9854C141.656 25.1739 141.493 24.2723 141.493 23.2264C141.493 22.2707 141.656 21.387 141.982 20.5936C142.308 19.8002 142.76 19.0969 143.339 18.5198C143.918 17.9428 144.588 17.492 145.348 17.1854C146.108 16.8608 146.941 16.7166 147.809 16.7166C148.208 16.7166 148.606 16.7707 149.004 16.8608C149.402 16.969 149.782 17.0952 150.144 17.2756C150.506 17.4559 150.868 17.6543 151.194 17.8887C151.52 18.1231 151.845 18.3756 152.135 18.6641L153.366 17.2034H154.126V29.5018ZM150.959 23.2264C150.959 22.7936 150.868 22.3788 150.705 21.9821C150.542 21.5854 150.307 21.2247 150.036 20.9182C149.746 20.6116 149.42 20.3592 149.04 20.1788C148.66 19.9985 148.244 19.8903 147.828 19.8903C147.393 19.8903 146.995 19.9625 146.615 20.1067C146.235 20.251 145.909 20.4674 145.62 20.7559C145.33 21.0444 145.113 21.387 144.95 21.8018C144.787 22.2166 144.715 22.7034 144.715 23.2264C144.715 23.7674 144.787 24.2362 144.95 24.651C145.113 25.0657 145.33 25.4264 145.62 25.6969C145.909 25.9854 146.235 26.2018 146.615 26.3461C146.995 26.4903 147.393 26.5625 147.828 26.5625C148.262 26.5625 148.66 26.4723 149.04 26.2739C149.42 26.0936 149.746 25.8411 150.036 25.5346C150.325 25.228 150.542 24.8674 150.705 24.4707C150.868 24.0739 150.959 23.6592 150.959 23.2264Z" fill="white"/>
<path d="M163.319 29.5017H156.116V26.364H163.319C163.537 26.364 163.718 26.2919 163.88 26.1296C164.043 25.9853 164.116 25.7869 164.116 25.5705C164.116 25.3542 164.043 25.2099 163.88 25.1378C163.718 25.0656 163.537 25.0296 163.319 25.0296H160.044C159.501 25.0296 158.994 24.9214 158.505 24.723C158.035 24.5246 157.618 24.2361 157.256 23.8755C156.894 23.5148 156.623 23.1001 156.424 22.6312C156.225 22.1623 156.116 21.6394 156.116 21.0984C156.116 20.5574 156.225 20.0525 156.424 19.5656C156.623 19.0968 156.913 18.682 157.256 18.3214C157.618 17.9607 158.035 17.6902 158.505 17.4919C158.976 17.2935 159.501 17.1853 160.044 17.1853H166.432V20.323H160.044C159.826 20.323 159.645 20.3951 159.483 20.5574C159.32 20.7197 159.247 20.9001 159.247 21.1164C159.247 21.3328 159.32 21.5312 159.483 21.6935C159.645 21.8558 159.826 21.9279 160.044 21.9279H163.319C163.862 21.9279 164.369 22.0181 164.84 22.1984C165.31 22.3787 165.726 22.6312 166.088 22.9558C166.45 23.2804 166.722 23.6591 166.939 24.1099C167.138 24.5607 167.247 25.0656 167.247 25.5886C167.247 26.1296 167.138 26.6345 166.939 27.1214C166.74 27.5902 166.45 28.005 166.088 28.3656C165.726 28.7263 165.31 28.9968 164.84 29.2132C164.369 29.3935 163.862 29.5017 163.319 29.5017Z" fill="white"/>
<path d="M119.54 32.5131H122.961V33.2704H120.409V34.8032H122.472V35.5606H120.409V37.1475H122.961V37.9229H119.54V32.5131Z" fill="white"/>
<path d="M123.829 37.9409V33.9917H124.68V34.2441C124.68 34.2441 125.241 33.9196 125.711 33.9196C126.2 33.9196 126.49 34.0458 126.725 34.2982C126.725 34.2982 127.449 33.9196 128.082 33.9196C129.168 33.9196 129.458 34.4966 129.458 35.831V37.9409H128.607V35.8491C128.607 35.0556 128.517 34.6769 127.937 34.6769C127.503 34.6769 127.033 34.8933 127.033 34.8933C127.069 34.9655 127.087 35.5245 127.087 35.9032V37.9409H126.236V35.9032C126.236 35.0196 126.146 34.6589 125.548 34.6589C125.096 34.6589 124.698 34.8573 124.698 34.8573V37.9228H123.829V37.9409Z" fill="white"/>
<path d="M130.472 33.9737H131.322V34.2262C131.322 34.2262 131.865 33.9016 132.354 33.9016C133.386 33.9016 133.874 34.4787 133.874 35.9213C133.874 37.5442 133.313 38.0311 132.101 38.0311C131.775 38.0311 131.395 37.977 131.34 37.959V39.636H130.472V33.9737ZM131.34 34.8754V37.2016C131.377 37.2016 131.757 37.2557 132.046 37.2557C132.788 37.2557 133.005 36.877 133.005 35.9033C133.005 34.9836 132.716 34.641 132.227 34.641C131.775 34.659 131.34 34.8754 131.34 34.8754Z" fill="white"/>
<path d="M134.724 33.9738H135.575V34.4427C135.575 34.4427 136.244 34.0099 136.914 33.8837V34.7492C136.19 34.8935 135.575 35.164 135.575 35.164V37.923H134.706V33.9738H134.724Z" fill="white"/>
<path d="M140.606 37.2017L140.624 37.8328C140.624 37.8328 139.719 38.0132 139.032 38.0132C137.837 38.0132 137.385 37.382 137.385 35.9935C137.385 34.5509 138.018 33.8837 139.104 33.8837C140.208 33.8837 140.769 34.4607 140.769 35.6869L140.715 36.3001H138.254C138.254 36.9312 138.507 37.2558 139.158 37.2558C139.774 37.2738 140.606 37.2017 140.606 37.2017ZM139.9 35.6509C139.9 34.8574 139.665 34.605 139.086 34.605C138.507 34.605 138.235 34.8935 138.235 35.6509H139.9Z" fill="white"/>
<path d="M144.334 34.8033C144.334 34.8033 143.393 34.677 142.923 34.677C142.452 34.677 142.235 34.7852 142.235 35.1098C142.235 35.3623 142.398 35.4344 143.176 35.5787C144.135 35.741 144.461 35.9754 144.461 36.7688C144.461 37.6885 143.882 38.0311 142.886 38.0311C142.344 38.0311 141.421 37.8508 141.421 37.8508L141.457 37.1295C141.457 37.1295 142.416 37.2557 142.814 37.2557C143.393 37.2557 143.61 37.1295 143.61 36.7869C143.61 36.5164 143.484 36.4262 142.687 36.3C141.819 36.1557 141.366 35.9754 141.366 35.1278C141.366 34.2442 142.072 33.9016 142.85 33.9016C143.429 33.9016 144.334 34.0819 144.334 34.0819V34.8033Z" fill="white"/>
<path d="M148.244 37.0033C148.262 37.2377 148.371 37.3279 148.588 37.364L148.57 38.0131C148.081 38.0131 147.81 37.959 147.52 37.7246C147.52 37.7246 146.887 38.0131 146.235 38.0131C145.457 38.0131 145.059 37.5804 145.059 36.7508C145.059 35.9213 145.511 35.6328 146.362 35.5607L147.393 35.4705V35.182C147.393 34.7492 147.194 34.6049 146.814 34.6049C146.289 34.6049 145.33 34.6771 145.33 34.6771L145.294 34.064C145.294 34.064 146.163 33.8656 146.887 33.8656C147.846 33.8656 148.244 34.2623 148.244 35.164V37.0033ZM146.47 36.1738C146.108 36.2099 145.927 36.3722 145.927 36.7328C145.927 37.0935 146.072 37.3099 146.416 37.3099C146.868 37.3099 147.393 37.1295 147.393 37.1295V36.0836L146.47 36.1738Z" fill="white"/>
<path d="M149.33 33.9738H150.18V34.4427C150.18 34.4427 150.85 34.0099 151.52 33.8837V34.7492C150.796 34.8935 150.18 35.164 150.18 35.164V37.923H149.312V33.9738H149.33Z" fill="white"/>
<path d="M152.189 32.4049H153.058V33.3065H152.189V32.4049ZM152.189 33.9738H153.058V37.9229H152.189V33.9738Z" fill="white"/>
<path d="M157.04 37.0033C157.058 37.2377 157.167 37.3279 157.384 37.364L157.366 38.0131C156.877 38.0131 156.605 37.959 156.316 37.7246C156.316 37.7246 155.682 38.0131 155.031 38.0131C154.253 38.0131 153.854 37.5804 153.854 36.7508C153.854 35.9213 154.307 35.6328 155.158 35.5607L156.189 35.4705V35.182C156.189 34.7492 155.99 34.6049 155.61 34.6049C155.085 34.6049 154.126 34.6771 154.126 34.6771L154.09 34.064C154.09 34.064 154.959 33.8656 155.682 33.8656C156.642 33.8656 157.04 34.2623 157.04 35.164V37.0033ZM155.248 36.1738C154.886 36.2099 154.705 36.3722 154.705 36.7328C154.705 37.0935 154.85 37.3099 155.194 37.3099C155.646 37.3099 156.171 37.1295 156.171 37.1295V36.0836L155.248 36.1738Z" fill="white"/>
<path d="M158.162 32.3328H159.031V37.9229H158.162V32.3328Z" fill="white"/>
<path d="M163.175 37.2017L163.193 37.8328C163.193 37.8328 162.288 38.0132 161.6 38.0132C160.406 38.0132 159.953 37.382 159.953 35.9935C159.953 34.5509 160.587 33.8837 161.672 33.8837C162.776 33.8837 163.338 34.4607 163.338 35.6869L163.283 36.3001H160.822C160.822 36.9312 161.075 37.2558 161.727 37.2558C162.342 37.2738 163.175 37.2017 163.175 37.2017ZM162.469 35.6509C162.469 34.8574 162.234 34.605 161.654 34.605C161.075 34.605 160.804 34.8935 160.804 35.6509H162.469Z" fill="white"/>
<path d="M166.904 34.8033C166.904 34.8033 165.963 34.677 165.492 34.677C165.021 34.677 164.804 34.7852 164.804 35.1098C164.804 35.3623 164.967 35.4344 165.745 35.5787C166.705 35.741 167.03 35.9754 167.03 36.7688C167.03 37.6885 166.451 38.0311 165.456 38.0311C164.913 38.0311 163.99 37.8508 163.99 37.8508L164.026 37.1295C164.026 37.1295 164.985 37.2557 165.383 37.2557C165.963 37.2557 166.18 37.1295 166.18 36.7869C166.18 36.5164 166.053 36.4262 165.257 36.3C164.388 36.1557 163.936 35.9754 163.936 35.1278C163.936 34.2442 164.641 33.9016 165.42 33.9016C165.999 33.9016 166.904 34.0819 166.904 34.0819V34.8033Z" fill="white"/>
<defs>
<linearGradient id="paint0_linear" x1="6.87695" y1="6.84166" x2="44.1596" y2="6.84166" gradientUnits="userSpaceOnUse">
<stop stop-color="#EE2849"/>
<stop offset="1" stop-color="#F16727"/>
</linearGradient>
<linearGradient id="paint1_linear" x1="37.2949" y1="44.0001" x2="37.2949" y2="6.85254" gradientUnits="userSpaceOnUse">
<stop stop-color="#F16727"/>
<stop offset="0.9098" stop-color="#EE2849"/>
</linearGradient>
<linearGradient id="paint2_linear" x1="0" y1="37.125" x2="37.2826" y2="37.125" gradientUnits="userSpaceOnUse">
<stop stop-color="#F16727"/>
<stop offset="0.9098" stop-color="#EE2849"/>
</linearGradient>
<linearGradient id="paint3_linear" x1="6.8665" y1="37.0808" x2="6.8665" y2="0" gradientUnits="userSpaceOnUse">
<stop stop-color="#EE2849"/>
<stop offset="1" stop-color="#F16727"/>
</linearGradient>
</defs>
</svg>
